<svg viewBox="0 0 800 1000" xmlns="http://www.w3.org/2000/svg">
    <!-- Header -->
    <rect x="0" y="0" width="800" height="80" fill="#f0f0f0"/>
    <rect x="20" y="20" width="100" height="40" fill="#d0d0d0"/> <!-- Logo -->
    <rect x="200" y="25" width="400" height="30" fill="#d0d0d0"/> <!-- Search Bar -->
    <rect x="650" y="25" width="60" height="30" fill="#d0d0d0"/> <!-- Login -->
    <rect x="720" y="25" width="60" height="30" fill="#d0d0d0"/> <!-- Cart -->
    
    <!-- Hero Section -->
    <rect x="0" y="80" width="800" height="300" fill="#e0e0e0"/>
    <rect x="200" y="180" width="400" height="40" fill="#d0d0d0"/> <!-- Headline -->
    <rect x="300" y="240" width="200" height="40" fill="#b0b0b0"/> <!-- CTA Button -->
    
    <!-- Featured Categories -->
    <rect x="50" y="420" width="220" height="180" fill="#d0d0d0"/>
    <rect x="290" y="420" width="220" height="180" fill="#d0d0d0"/>
    <rect x="530" y="420" width="220" height="180" fill="#d0d0d0"/>
    
    <!-- Popular Items -->
    <text x="50" y="650" font-family="Arial" font-size="20" fill="#404040">Popular Items</text>
    <rect x="50" y="670" width="160" height="200" fill="#d0d0d0"/>
    <rect x="230" y="670" width="160" height="200" fill="#d0d0d0"/>
    <rect x="410" y="670" width="160" height="200" fill="#d0d0d0"/>
    <rect x="590" y="670" width="160" height="200" fill="#d0d0d0"/>
    
    <!-- Footer -->
    <rect x="0" y="920" width="800" height="80" fill="#f0f0f0"/>
</svg>
