<svg viewBox="0 0 800 1000" xmlns="http://www.w3.org/2000/svg">
    <!-- Header (same as homepage) -->
    <rect x="0" y="0" width="800" height="80" fill="#f0f0f0"/>
    <rect x="20" y="20" width="100" height="40" fill="#d0d0d0"/>
    <rect x="200" y="25" width="400" height="30" fill="#d0d0d0"/>
    <rect x="650" y="25" width="60" height="30" fill="#d0d0d0"/>
    <rect x="720" y="25" width="60" height="30" fill="#d0d0d0"/>
    
    <!-- Filters Sidebar -->
    <rect x="0" y="80" width="200" height="840" fill="#e8e8e8"/>
    <rect x="20" y="100" width="160" height="30" fill="#d0d0d0"/> <!-- Category Filter -->
    <rect x="20" y="150" width="160" height="100" fill="#d0d0d0"/> <!-- Price Filter -->
    <rect x="20" y="270" width="160" height="150" fill="#d0d0d0"/> <!-- Other Filters -->
    
    <!-- Product Grid -->
    <rect x="220" y="100" width="560" height="40" fill="#e0e0e0"/> <!-- Sort Options -->
    
    <!-- Product Cards (3x3 grid) -->
    <rect x="220" y="160" width="170" height="220" fill="#d0d0d0"/>
    <rect x="410" y="160" width="170" height="220" fill="#d0d0d0"/>
    <rect x="600" y="160" width="170" height="220" fill="#d0d0d0"/>
    
    <rect x="220" y="400" width="170" height="220" fill="#d0d0d0"/>
    <rect x="410" y="400" width="170" height="220" fill="#d0d0d0"/>
    <rect x="600" y="400" width="170" height="220" fill="#d0d0d0"/>
    
    <rect x="220" y="640" width="170" height="220" fill="#d0d0d0"/>
    <rect x="410" y="640" width="170" height="220" fill="#d0d0d0"/>
    <rect x="600" y="640" width="170" height="220" fill="#d0d0d0"/>
    
    <!-- Pagination -->
    <rect x="350" y="880" width="300" height="40" fill="#e0e0e0"/>
</svg>
